<svg id="Layer_1" data-name="Layer 1" xmlns="http://www.w3.org/2000/svg" viewBox="0 0 2244 1140"><defs><style>.cls-1{fill:#fefefe;}.cls-2{fill:#272643;}.cls-3{fill:#fff;}.cls-4{fill:#f4f4f6;}.cls-5{fill:#ececee;}.cls-6{fill:#e4e4e8;}.cls-7{fill:#d1d1d7;}</style></defs><ellipse class="cls-1" cx="1122" cy="570" rx="1586.75" ry="806.1"/><path class="cls-2" d="M674.69,857.84q0-153.72,0-307.44c0-9.47-1.24-8.21,8.42-8.21,78.48,0,157-.15,235.45.07,19.18,0,38.41.6,57.53,2.07,29.82,2.28,59.33,7,87.87,16.23,41.13,13.32,78.33,33.48,108.87,64.69s50.63,68.22,62.84,109.82a371.05,371.05,0,0,1,12.61,65.86,495.28,495.28,0,0,1,2.2,71.71c-1.62,40.89-6.79,81.36-20.66,120.18-11.67,32.63-27.62,63-50.86,89a242.11,242.11,0,0,1-81,59.17c-30.39,13.85-62.38,22-95.3,26.82a503.77,503.77,0,0,1-55.71,5c-88.67,3-177.36.63-266,1.41-7.19.06-6.27.38-6.27-7.38q0-138.72,0-277.44Z" transform="translate(376.57 -306.91)"/><path class="cls-2" d="M668.68,859.15q0,153.33,0,306.66c0,9.22,1.31,8.34-8.41,8.34q-106.85,0-213.69-.06c-7.74,0-15.41.94-23.12,1-20.94.24-41.71-2.16-62.55-3.79a401.22,401.22,0,0,1-72.66-12.79c-28.59-7.64-55.57-19.06-80.42-35.36a233.69,233.69,0,0,1-78.92-86.2,306.71,306.71,0,0,1-31.64-89.06A512.58,512.58,0,0,1,89.45,882q-1.36-24.36-.6-48.62c1.17-38.73,6.76-76.85,19.85-113.5,10.64-29.81,25.63-57.35,46.37-81.42a240.82,240.82,0,0,1,73-57.44c31.13-16,64-26.08,98.44-31.45a526.72,526.72,0,0,1,68.34-6c88.68-2.19,177.36-.34,266-1,1.25,0,2.5.07,3.74,0,2.8-.2,4.22.88,4,3.84-.12,2,0,4,0,6Z" transform="translate(376.57 -306.91)"/><path class="cls-3" d="M884.43,786.45c1-2.61,3.13-4,4.86-5.74,12.69-12.76,25.47-25.42,38.13-38.2,14.24-14.37,28.35-28.87,42.6-43.23,5.27-5.31,10.78-10.39,16.21-15.54,5.07-4.81,11.85-6.34,18.07-8.6,5-1.81,10.65-2,16.05-2.35,15.42-1,29.28,2.81,41.92,12.36a111.18,111.18,0,0,1,16.66,15.9c5.19,6,7.86,13.57,9.43,20.92,3.4,16,4,32.12-2.7,47.71a32.82,32.82,0,0,1-6.87,10.54q-44.67,44.88-89.19,89.92c-2.29,2.3-4.56,4.62-6.9,6.88-3.62,3.5-3.66,3.49-7.5-.26-2.5-2.44-5-4.94-7.43-7.41-15.72-15.73-31.23-31.68-47.25-47.1-11.33-10.91-22.47-22-33.67-33C886,788.34,885.21,787.35,884.43,786.45Z" transform="translate(376.57 -306.91)"/><path class="cls-3" d="M943.44,894.88c3.74,3.27,9.46,6.43,9.79,10.71.33,4.48-5.89,7.39-9.33,10.87-17.93,18.12-36,36-54,54.14-10.56,10.62-20.62,21.76-31.48,32.06C846,1014.41,831.1,1019,813.86,1017c-15.72-1.85-29.8-7.71-43.37-15.31-1.28-.72-2.79-1.45-3.57-2.6-3.45-5.1-7.89-9.47-10.72-15-8.38-16.47-11.46-33.72-7.21-51.81,1.91-8.17,7.07-15,12.77-20.84,32.63-33.1,65.61-65.85,98.85-99.09a118.5,118.5,0,0,1,15.28,15.18c.34,1.44-.56,1.93-1.72,2.21-1-.29.21.06-.75,0-4.32-.2-7-6-11.5-4.07-4,1.74-4.85,6.76-7.58,10-3.43,4.05-8,6.79-11.71,10.47-24.66,24.42-49,49.19-74.34,72.88-11.47,10.72-16.64,24.5-11.57,39.43,6,17.8,12.56,35.63,34,42.43,11.45,3.63,22.13,8.64,34.58,7.81,9.89-.66,18.21-3.59,25.43-10.77,26-25.87,50.37-53.37,76.24-79.39,3-3,5.86-6.17,9.38-8.58,3.94-2.7,5.59-6.23,4.5-11a6.68,6.68,0,0,1,.24-2.13,4.21,4.21,0,0,1,1.32-1.66Z" transform="translate(376.57 -306.91)"/><path class="cls-4" d="M874.51,828.89l1.38-1.38c14,13,27.42,26.55,40.53,40.43.4,1.44-.47,1.94-1.64,2.22-14.21-7.49-26.12-17.64-34.87-31.15C877.87,835.86,874.4,833.26,874.51,828.89Z" transform="translate(376.57 -306.91)"/><path class="cls-5" d="M914.82,869.45l1.6-1.51a79,79,0,0,1,12,11.95c.46,1.47-.44,2-1.62,2.27C920.65,880,915,877.32,914.82,869.45Z" transform="translate(376.57 -306.91)"/><path class="cls-6" d="M926.63,881.53l1.82-1.64A68.78,68.78,0,0,1,939,890.3c.58,1.44-.34,2-1.45,2.34C932,890.85,928,887.45,926.63,881.53Z" transform="translate(376.57 -306.91)"/><path class="cls-7" d="M937.14,892.05,939,890.3a11.19,11.19,0,0,1,4.44,4.58.61.61,0,0,1-.22.82l-.58,0,0,.58-.36.25-.42-.06C938.56,896.81,937.24,895.08,937.14,892.05Z" transform="translate(376.57 -306.91)"/><path class="cls-3" d="M295.19,857.57q0-93,0-186a81.56,81.56,0,0,1,1.49-17.07c2.13-10.08,9-15.36,18.39-17.42a69.83,69.83,0,0,1,14.81-1.53q102.72.14,205.44.06c14.11,0,17.65,2.9,19.73,16.66a138.59,138.59,0,0,1,0,38.7,31.66,31.66,0,0,1-1.52,5.77c-2.71,8.21-4.29,9.36-12.87,9.37h-138c-4.5,0-9,.22-13.5-.06-4-.25-5.12,1.27-5.09,5.14.17,17,.07,34,.07,51q0,22.5,0,45c0,6.91-.94,7,6.83,7q59.61,0,119.22,0c1.5,0,3,0,4.5,0,9,.26,12.57,2.82,15.12,11.43,1,3.55,2.18,7.27,2.2,10.92.05,10.7,1,21.46-1,32.1a39,39,0,0,1-1.71,6.49c-2.25,6.19-4.95,8-11.74,8q-62.23,0-124.47,0c-10.33,0-9-1.18-9,9.32q-.07,53.24,0,106.48c0,1.74.1,3.5,0,5.24-.15,2.65,1.19,3.53,3.62,3.44,1.74-.06,3.49,0,5.24,0H536.25c1.49,0,3,0,4.49,0,8.6.36,12.13,3,14.51,11.2,1.1,3.81,2.26,7.77,2.3,11.66.1,11,1,22-1,32.85a41.73,41.73,0,0,1-1.6,5.76c-2.54,7.52-4.57,9-12.46,9q-48,0-96,0H322q-25,0-26.33-24.92c-.28-5-.48-10-.48-15Q295.15,947.93,295.19,857.57Z" transform="translate(376.57 -306.91)"/><path class="cls-2" d="M1054,739.57c.66-4.58-.72-8.08-3.12-11.54a116,116,0,0,1-7.08-12.3c-2.81-5.31-1.9-10.81,2.05-15.14a6.54,6.54,0,0,1,7.45-2.05c8.84,3.12,16,8.63,19.2,17.49,3,8.09,5.28,16.47,3.34,25.5-1,4.8-.58,10-.6,14.94,0,10.63-6.64,17.4-14.13,23.34-5.07,4-15.15,1.32-18.28-4.35-1.07-2-1.8-3.78-.53-6.28,1.93-3.79,3.42-7.76,6.91-10.49a9.5,9.5,0,0,0,4-9.15C1052.76,746,1055.15,742.76,1054,739.57Z" transform="translate(376.57 -306.91)"/><path class="cls-2" d="M937.14,892.05a10.75,10.75,0,0,0,4.7,4.4c3,9.43,3,9.63-5.15,15.33-4.74,3.32-8.52,7.69-12.47,11.83q-35.4,37-70.59,74.29c-8,8.51-17.52,11.91-29.19,12.56-12,.67-22.39-2.94-33-7.55-20.87-9.13-23.51-12-32.8-33.08A105,105,0,0,1,753,951.56a15.23,15.23,0,0,1,.09-7.41c.31-1.2,1.27-2.31,1.31-3.48.42-11.92,8.6-19.06,16.24-26.5,6.25-6.09,12.7-12,18.94-18.08q22.74-22.26,45.38-44.63c4.09-4,8-8.25,12.52-11.8,6.16-4.82,9.75-11.73,13.81-18.22,5.06,1.76,8.39,5.91,13.18,7.45,4.58,4.53,6.88,10.69,11.15,15.48,8.62,9.66,18.82,17.44,29.16,25.08,1.57,6.35,7.26,8.65,11.81,12.08A41.06,41.06,0,0,0,937.14,892.05Z" transform="translate(376.57 -306.91)"/><path class="cls-3" d="M942.62,896.26l0-.61.59.05A1.81,1.81,0,0,1,942.62,896.26Z" transform="translate(376.57 -306.91)"/></svg>